<?xml version="1.0" encoding="UTF-8"?>
<svg width="373px" height="811px" viewBox="0 0 373 811" version="1.1" xmlns="http://www.w3.org/2000/svg" xmlns:xlink="http://www.w3.org/1999/xlink">
    <title>Background splash</title>
    <defs>
        <rect id="path-1" x="0.994680851" y="-0.0012300123" width="372.007979" height="811.00123"></rect>
        <linearGradient x1="50%" y1="0%" x2="50%" y2="100%" id="linearGradient-3">
            <stop stop-color="#FFFFFF" offset="0%"></stop>
            <stop stop-color="#FFFFFF" stop-opacity="0.400486233" offset="53.6132812%"></stop>
            <stop stop-color="#FFFFFF" offset="100%"></stop>
        </linearGradient>
        <linearGradient x1="50%" y1="0%" x2="50%" y2="100%" id="linearGradient-4">
            <stop stop-color="#FFFFFF" offset="0%"></stop>
            <stop stop-color="#FFFFFF" stop-opacity="0.400486233" offset="53.6132812%"></stop>
            <stop stop-color="#FFFFFF" offset="100%"></stop>
        </linearGradient>
        <linearGradient x1="50%" y1="1.27101826%" x2="50%" y2="100%" id="linearGradient-5">
            <stop stop-color="#03001F" stop-opacity="0" offset="0%"></stop>
            <stop stop-color="#03001F" stop-opacity="0.952841768" offset="30.8646537%"></stop>
            <stop stop-color="#03001F" offset="77.7735038%"></stop>
            <stop stop-color="#03001F" stop-opacity="0" offset="100%"></stop>
        </linearGradient>
    </defs>
    <g id="Screens" stroke="none" stroke-width="1" fill="none" fill-rule="evenodd">
        <g id="1.0_Splash" transform="translate(-1.000000, -1.000000)">
            <g id="Background-splash" transform="translate(1.000000, 1.000000)">
                <mask id="mask-2" fill="white">
                    <use xlink:href="#path-1"></use>
                </mask>
                <g id="Rectangle"></g>
                <g id="Grid" mask="url(#mask-2)">
                    <g transform="translate(-2.000000, -1.000000)" id="Group-3">
                        <g opacity="0.603841146" transform="translate(49.371011, 0.998770)">
                            <line x1="0.498670213" y1="0" x2="0.498670213" y2="811.00123" id="Path-3" stroke="url(#linearGradient-3)" opacity="0.204520089"></line>
                            <line x1="56.349734" y1="0" x2="56.349734" y2="811.00123" id="Path-3" stroke="url(#linearGradient-3)" opacity="0.204520089"></line>
                            <line x1="112.200798" y1="0" x2="112.200798" y2="811.00123" id="Path-3" stroke="url(#linearGradient-3)" opacity="0.204520089"></line>
                            <line x1="168.051862" y1="0" x2="168.051862" y2="811.00123" id="Path-3" stroke="url(#linearGradient-3)" opacity="0.204520089"></line>
                            <line x1="223.902926" y1="0" x2="223.902926" y2="811.00123" id="Path-3" stroke="url(#linearGradient-3)" opacity="0.204520089"></line>
                            <line x1="279.753989" y1="0" x2="279.753989" y2="811.00123" id="Path-3" stroke="url(#linearGradient-3)" opacity="0.204520089"></line>
                        </g>
                        <g opacity="0.556175595" transform="translate(188.500000, 337.084871) rotate(-270.000000) translate(-188.500000, -337.084871) translate(-147.603723, 149.316113)">
                            <line x1="0.997340426" y1="0.499384994" x2="0.997340426" y2="375.03813" id="Path-3" stroke="url(#linearGradient-4)" opacity="0.204520089"></line>
                            <line x1="56.8484043" y1="0.499384994" x2="56.8484043" y2="375.03813" id="Path-3" stroke="url(#linearGradient-4)" opacity="0.204520089"></line>
                            <line x1="112.699468" y1="0.499384994" x2="112.699468" y2="375.03813" id="Path-3" stroke="url(#linearGradient-4)" opacity="0.204520089"></line>
                            <line x1="168.550532" y1="0.499384994" x2="168.550532" y2="375.03813" id="Path-3" stroke="url(#linearGradient-4)" opacity="0.204520089"></line>
                            <line x1="224.401596" y1="0.499384994" x2="224.401596" y2="375.03813" id="Path-3" stroke="url(#linearGradient-4)" opacity="0.204520089"></line>
                            <line x1="280.25266" y1="0.499384994" x2="280.25266" y2="375.03813" id="Path-3" stroke="url(#linearGradient-4)" opacity="0.204520089"></line>
                            <line x1="336.103723" y1="0.499384994" x2="336.103723" y2="375.03813" id="Path-3" stroke="url(#linearGradient-4)" opacity="0.204520089"></line>
                            <line x1="391.954787" y1="0.499384994" x2="391.954787" y2="375.03813" id="Path-3" stroke="url(#linearGradient-4)" opacity="0.204520089"></line>
                            <line x1="447.805851" y1="0.499384994" x2="447.805851" y2="375.03813" id="Path-3" stroke="url(#linearGradient-4)" opacity="0.204520089"></line>
                            <line x1="503.656915" y1="0.499384994" x2="503.656915" y2="375.03813" id="Path-3" stroke="url(#linearGradient-4)" opacity="0.204520089"></line>
                            <line x1="559.507979" y1="0.499384994" x2="559.507979" y2="375.03813" id="Path-3" stroke="url(#linearGradient-4)" opacity="0.204520089"></line>
                            <line x1="615.359043" y1="0.499384994" x2="615.359043" y2="375.03813" id="Path-3" stroke="url(#linearGradient-4)" opacity="0.204520089"></line>
                            <line x1="671.210106" y1="0.499384994" x2="671.210106" y2="375.03813" id="Path-3" stroke="url(#linearGradient-4)" opacity="0.204520089"></line>
                        </g>
                    </g>
                </g>
                <g id="Lines-top" mask="url(#mask-2)" fill="#FFFFFF" fill-rule="nonzero" opacity="0.496582031">
                    <g transform="translate(172.000000, 47.000000)">
                        <path id="Path-21" d="M170.72133,-4 C173.037578,-4 174.945095,-2.25001939 175.193856,-8.51613663e-05 L200.814249,0 L200.814249,1 L175.193787,1.00070744 C174.944744,3.25034205 173.037364,5 170.72133,5 C168.236049,5 166.22133,2.98528137 166.22133,0.5 C166.22133,-1.98528137 168.236049,-4 170.72133,-4 Z M170.72133,-3 C168.788333,-3 167.22133,-1.43299662 167.22133,0.5 C167.22133,2.43299662 168.788333,4 170.72133,4 C172.654327,4 174.22133,2.43299662 174.22133,0.5 C174.22133,-1.43299662 172.654327,-3 170.72133,-3 Z"></path>
                        <path id="Path-21" d="M200.814249,19.8405492 L200.814249,20.8405492 L174.281,20.84 L166.573574,27.5888984 C167.868581,29.4456281 167.586112,32.0189175 165.843307,33.5446838 C163.973374,35.1817463 161.130392,34.9929674 159.49333,33.1230343 C157.856267,31.2531011 158.045046,28.4101195 159.914979,26.773057 C161.65773,25.2473388 164.245666,25.3075402 165.914874,26.8365342 L173.76476,19.9643477 L173.906169,19.8405492 L200.814249,19.8405492 Z M160.573682,27.5254599 C159.11929,28.7987308 158.972462,31.0099387 160.245733,32.4643312 C161.519004,33.9187236 163.730212,34.0655516 165.184604,32.7922808 C166.638997,31.5190099 166.785825,29.307802 165.512554,27.8534095 C164.239283,26.3990171 162.028075,26.2521891 160.573682,27.5254599 Z"></path>
                        <path id="Path-22" d="M65.4105151,34.5637148 C65.1616456,36.813534 63.2541809,38.5633908 60.9380153,38.5633908 C58.4527339,38.5633908 56.4380153,36.5486721 56.4380153,34.0633908 C56.4380153,31.5781094 58.4527339,29.5633908 60.9380153,29.5633908 C63.2541809,29.5633908 65.1616456,31.3132475 65.4105151,33.5630667 L89.7007022,33.5633908 L89.8460458,33.70386 L105.433,48.769 L146.858,48.769 L148.1917,47.4978593 C146.820112,45.6975458 146.993808,43.1151928 148.670316,41.5174046 C150.469406,39.8027908 153.317825,39.8712718 155.032439,41.6703612 C156.747053,43.4694507 156.678572,46.31787 154.879482,48.0324839 C153.202738,49.6304967 150.61453,49.6796846 148.882206,48.2225379 L147.403732,49.6315697 L147.25888,49.7696209 L105.030342,49.7696209 L104.884999,49.6291517 L89.297,34.563 Z M149.360224,42.2413023 C147.960932,43.5748908 147.907669,45.7903281 149.241257,47.1896199 C150.574846,48.5889117 152.790283,48.6421747 154.189575,47.3085862 C155.588867,45.9749976 155.64213,43.7595604 154.308541,42.3602686 C152.974953,40.9609768 150.759515,40.9077137 149.360224,42.2413023 Z"></path>
                        <path id="Path-23" d="M1.47007134e-14,53.7696209 C-2.48528137,53.7696209 -4.5,51.7549023 -4.5,49.2696209 C-4.5,46.7843395 -2.48528137,44.7696209 1.3720996e-14,44.7696209 C2.31616561,44.7696209 4.22363028,46.5194776 4.47249977,48.7692968 L93.9735796,48.7696209 L94.1182306,48.9067145 L100.876,55.312 L168.161,55.312 L181.484609,41.3216976 L181.632395,41.1665058 L200.814249,41.1665058 L200.814249,42.1665058 L182.06,42.166 L168.737975,56.1571776 L168.590189,56.3123694 L100.478412,56.3123694 L100.333761,56.1752758 L93.575,49.769 L4.47249977,49.769945 C4.22363028,52.0197642 2.31616561,53.7696209 1.47007134e-14,53.7696209 Z M1.3720996e-14,45.7696209 C-1.93299662,45.7696209 -3.5,47.3366243 -3.5,49.2696209 C-3.5,51.2026175 -1.93299662,52.7696209 1.47007134e-14,52.7696209 C1.93299662,52.7696209 3.5,51.2026175 3.5,49.2696209 C3.5,47.3366243 1.93299662,45.7696209 1.3720996e-14,45.7696209 Z"></path>
                        <path id="Path-25" d="M32.5894407,66.2091554 C30.1041594,66.2091554 28.0894407,64.1944368 28.0894407,61.7091554 C28.0894407,59.223874 30.1041594,57.2091554 32.5894407,57.2091554 C34.9056063,57.2091554 36.813071,58.9590121 37.0619405,61.2088313 L61.1623295,61.2091554 L61.3114779,61.3767013 L68.481,69.431 L200.814249,69.4312819 L200.814249,70.4312819 L68.0329886,70.4312819 L67.8838403,70.263736 L60.714,62.209 L37.0618981,62.2098628 C36.8128543,64.4594974 34.9054748,66.2091554 32.5894407,66.2091554 Z M32.5894407,58.2091554 C30.6564441,58.2091554 29.0894407,59.7761588 29.0894407,61.7091554 C29.0894407,63.642152 30.6564441,65.2091554 32.5894407,65.2091554 C34.5224374,65.2091554 36.0894407,63.642152 36.0894407,61.7091554 C36.0894407,59.7761588 34.5224374,58.2091554 32.5894407,58.2091554 Z"></path>
                        <path id="Path-26" d="M187.916941,5.14156167 C190.233106,5.14156167 192.140571,6.89141839 192.389441,9.14123757 L200.814249,9.14156167 L200.814249,10.1415617 L192.389441,10.1418858 C192.140571,12.391705 190.233106,14.1415617 187.916941,14.1415617 C185.431659,14.1415617 183.416941,12.126843 183.416941,9.64156167 C183.416941,7.15628029 185.431659,5.14156167 187.916941,5.14156167 Z M187.916941,6.14156167 C185.983944,6.14156167 184.416941,7.70856504 184.416941,9.64156167 C184.416941,11.5745583 185.983944,13.1415617 187.916941,13.1415617 C189.849937,13.1415617 191.416941,11.5745583 191.416941,9.64156167 C191.416941,7.70856504 189.849937,6.14156167 187.916941,6.14156167 Z"></path>
                        <path id="Path-24" d="M91.4099355,57.2091554 C93.7261011,57.2091554 95.6335658,58.9590121 95.8824353,61.2088313 L200.342025,61.2091554 L200.342025,62.2091554 L95.8823928,62.2098628 C95.6333491,64.4594974 93.7259696,66.2091554 91.4099355,66.2091554 C88.9246541,66.2091554 86.9099355,64.1944368 86.9099355,61.7091554 C86.9099355,59.223874 88.9246541,57.2091554 91.4099355,57.2091554 Z M91.4099355,58.2091554 C89.4769389,58.2091554 87.9099355,59.7761588 87.9099355,61.7091554 C87.9099355,63.642152 89.4769389,65.2091554 91.4099355,65.2091554 C93.3429321,65.2091554 94.9099355,63.642152 94.9099355,61.7091554 C94.9099355,59.7761588 93.3429321,58.2091554 91.4099355,58.2091554 Z"></path>
                    </g>
                </g>
                <g id="Lines-bottom" mask="url(#mask-2)" fill="#FFFFFF" fill-rule="nonzero" opacity="0.496582031">
                    <g transform="translate(-67.000000, 774.500000)">
                        <path d="M0,18.5 C-2.48528137,18.5 -4.5,16.4852814 -4.5,14 C-4.5,11.5147186 -2.48528137,9.5 0,9.5 C2.31637876,9.5 4.22398135,11.2501788 4.47256844,13.500297 L28.5728888,13.5 L28.7220371,13.6675459 L35.892,21.722 L168.224809,21.7221265 L168.224809,22.7221265 L35.4435479,22.7221265 L35.2943996,22.5545806 L28.125,14.5 L4.47245735,14.5007074 C4.2234136,16.7503421 2.31603406,18.5 0,18.5 Z M0,10.5 C-1.93299662,10.5 -3.5,12.0670034 -3.5,14 C-3.5,15.9329966 -1.93299662,17.5 0,17.5 C1.93299662,17.5 3.5,15.9329966 3.5,14 C3.5,12.0670034 1.93299662,10.5 0,10.5 Z" id="Path-25"></path>
                        <path d="M15,-4 C17.3162476,-4 19.2237653,-2.25001939 19.4725262,-8.51613663e-05 L123.93209,4.4408921e-16 L123.93209,1 L19.4724574,1.00070744 C19.2234136,3.25034205 17.3160341,5 15,5 C12.5147186,5 10.5,2.98528137 10.5,0.5 C10.5,-1.98528137 12.5147186,-4 15,-4 Z M15,-3 C13.0670034,-3 11.5,-1.43299662 11.5,0.5 C11.5,2.43299662 13.0670034,4 15,4 C16.9329966,4 18.5,2.43299662 18.5,0.5 C18.5,-1.43299662 16.9329966,-3 15,-3 Z" id="Path-24"></path>
                    </g>
                </g>
                <rect id="Rectangle" fill="url(#linearGradient-5)" mask="url(#mask-2)" x="-1" y="191" width="376" height="412"></rect>
                <circle id="Oval" stroke="#807F8E" mask="url(#mask-2)" cx="62" cy="775" r="4"></circle>
                <circle id="Oval" stroke="#807F8E" mask="url(#mask-2)" cx="106" cy="796" r="4"></circle>
            </g>
        </g>
    </g>
</svg>